
<svg width="64" height="64" viewBox="0 0 64 64" fill="none" xmlns="http://www.w3.org/2000/svg">
  <!-- الخلفية المستطيلة بنفس ستايل My Files و Theme -->
  <rect x="8" y="12" width="48" height="40" rx="4" fill="black" stroke="black" stroke-width="2"/>

  <!-- سماعة أذن تمثل الدعم الفني -->
  <path d="M20 32C20 25.3726 25.3726 20 32 20C38.6274 20 44 25.3726 44 32V38C44 39.1046 43.1046 40 42 40H40C38.8954 40 38 39.1046 38 38V34C38 32.8954 37.1046 32 36 32H28C26.8954 32 26 32.8954 26 34V38C26 39.1046 25.1046 40 24 40H22C20.8954 40 20 39.1046 20 38V32Z" fill="gold"/>

  <!-- نقطة صغيرة للمايكروفون -->
  <circle cx="32" cy="44" r="2" fill="gold"/>
</svg>
