<?xml version="1.0" standalone="no"?>
<!DOCTYPE svg PUBLIC "-//W3C//DTD SVG 20010904//EN"
 "http://www.w3.org/TR/2001/REC-SVG-20010904/DTD/svg10.dtd">
<svg version="1.0" xmlns="http://www.w3.org/2000/svg"
 width="700.000000pt" height="500.000000pt" viewBox="0 0 700.000000 500.000000"
 preserveAspectRatio="xMidYMid meet">

<g transform="translate(0.000000,500.000000) scale(0.100000,-0.100000)"
fill="#000000" stroke="none">
<path d="M4802 4129 c-62 -35 -108 -100 -118 -165 -5 -35 -11 -45 -36 -55 -71
-29 -128 -106 -128 -171 1 -65 43 -129 116 -175 16 -10 12 -12 -28 -12 -36 -1
-48 -5 -48 -16 0 -8 7 -15 15 -15 27 0 91 -68 162 -172 39 -57 109 -159 157
-228 47 -69 84 -130 82 -137 -3 -7 -71 -98 -152 -203 -135 -177 -196 -240
-245 -255 -10 -4 -19 -12 -19 -19 0 -9 46 -13 190 -14 161 -1 190 1 190 13 0
9 -18 19 -46 26 -60 15 -104 52 -104 88 0 15 9 44 19 64 27 52 184 257 197
257 10 0 39 -41 208 -288 56 -81 56 -95 -2 -121 -69 -31 -39 -38 158 -37 202
1 220 6 157 44 -40 23 -79 71 -179 217 -41 61 -107 157 -147 214 -39 57 -71
108 -71 112 0 10 166 241 227 318 50 62 106 109 140 117 38 10 28 34 -13 34
l-37 0 46 43 c52 48 67 80 67 143 0 79 -45 141 -124 170 -19 7 -33 20 -37 37
-25 94 -139 150 -235 115 -31 -11 -34 -10 -60 22 -41 48 -116 80 -189 80 -49
0 -70 -6 -113 -31z m185 -40 c38 -14 81 -56 105 -103 l19 -38 22 20 c52 47
102 54 155 22 33 -20 62 -71 62 -108 0 -15 10 -21 41 -26 28 -5 53 -18 75 -40
29 -29 34 -41 34 -80 0 -39 -6 -52 -34 -84 l-34 -37 -364 -3 c-310 -2 -369 0
-405 13 -64 25 -91 77 -73 144 13 48 56 83 114 91 l40 5 -3 47 c-7 127 125
223 246 177z m207 -554 c3 -8 17 -15 31 -15 14 0 39 -7 55 -15 25 -13 30 -22
30 -51 0 -19 -7 -48 -15 -65 -22 -41 -185 -269 -193 -269 -4 0 -23 24 -42 53
-19 28 -70 103 -113 165 -88 128 -92 147 -34 175 20 10 37 23 37 28 0 5 53 9
119 9 96 0 120 -3 125 -15z"/>
<path d="M4971 3906 c-55 -56 -63 -86 -22 -86 23 0 29 -18 33 -95 l3 -50 52
-3 52 -3 3 73 c3 68 5 73 28 78 14 3 26 13 28 21 3 15 -98 119 -115 119 -5 0
-33 -24 -62 -54z"/>
<path d="M2975 4098 c-33 -5 -97 -7 -142 -5 -74 4 -83 3 -83 -13 0 -13 11 -19
41 -23 58 -8 95 -46 109 -112 16 -79 9 -1333 -8 -1362 -15 -27 -54 -49 -105
-58 -20 -4 -37 -12 -37 -19 0 -16 492 -15 497 1 3 7 -14 14 -43 19 -30 4 -58
17 -78 35 l-31 27 -3 761 -2 761 -28 -1 c-15 -1 -54 -6 -87 -11z"/>
<path d="M230 3944 c0 -7 17 -16 38 -19 20 -4 50 -11 65 -17 59 -23 58 -9 55
-697 -3 -721 5 -661 -99 -682 -34 -7 -59 -17 -59 -24 0 -20 613 -19 727 1 156
27 300 105 397 216 55 63 120 190 141 274 34 138 36 345 4 489 -6 28 -31 91
-56 142 -77 159 -211 261 -403 309 -66 16 -120 19 -442 20 -296 1 -368 -2
-368 -12z m687 -29 c209 -40 332 -168 382 -401 41 -185 37 -434 -10 -617 -65
-257 -233 -377 -526 -377 -123 0 -154 15 -172 83 -16 65 -14 1196 2 1252 17
56 58 75 164 75 45 0 117 -7 160 -15z"/>
<path d="M2128 3580 c-120 -21 -254 -123 -311 -236 -80 -158 -96 -399 -37
-574 69 -204 246 -321 467 -308 61 3 94 12 144 35 91 43 186 144 205 217 11
44 -20 31 -55 -24 -68 -104 -166 -155 -287 -148 -82 5 -135 31 -196 95 -81 84
-118 202 -118 375 l0 118 328 2 327 3 -3 70 c-8 221 -137 364 -342 378 -41 3
-96 2 -122 -3z m157 -49 c39 -22 91 -110 105 -175 5 -28 11 -80 13 -116 l2
-65 -233 -3 -234 -2 7 42 c22 142 65 241 127 291 71 57 145 67 213 28z"/>
<path d="M6045 3581 c-193 -37 -339 -202 -374 -422 -15 -90 -13 -242 3 -320
30 -141 125 -272 238 -328 216 -108 472 -38 576 158 18 32 29 61 25 65 -13 13
-30 5 -41 -19 -20 -43 -94 -116 -147 -142 -35 -18 -72 -28 -121 -31 -62 -4
-79 -1 -133 23 -107 48 -178 152 -207 302 -15 79 -18 179 -8 232 l6 31 322 2
321 3 3 34 c10 106 -49 264 -122 328 -78 68 -230 105 -341 84z m114 -31 c91
-26 161 -164 161 -319 l0 -61 -230 0 -230 0 0 28 c0 50 28 159 53 208 35 69
104 131 160 144 45 11 48 11 86 0z"/>
<path d="M3630 3568 c-14 -6 -87 -13 -163 -16 -93 -3 -137 -8 -134 -15 2 -7
20 -15 41 -19 53 -11 73 -24 93 -61 16 -28 19 -75 24 -407 6 -396 10 -432 57
-497 56 -78 210 -115 328 -77 87 27 143 70 194 148 l45 69 3 -113 3 -112 27 7
c15 3 91 9 170 12 105 4 142 9 142 18 0 7 -17 15 -37 18 -48 8 -78 29 -101 70
-15 29 -17 78 -20 510 -3 446 -4 478 -20 472 -41 -16 -122 -25 -219 -25 -116
0 -134 -14 -48 -36 60 -15 91 -48 100 -106 4 -24 5 -176 3 -338 -3 -279 -5
-298 -26 -352 -28 -69 -102 -155 -157 -179 -56 -26 -150 -25 -193 1 -66 41
-67 42 -70 568 -2 259 -6 472 -10 471 -4 0 -18 -5 -32 -11z"/>
<path d="M1177 2369 c-5 -9 -7 -205 -5 -435 3 -411 4 -420 26 -477 31 -75 113
-164 191 -206 105 -56 260 -75 376 -47 47 11 44 12 -55 8 -230 -9 -400 79
-483 247 l-32 66 -5 430 c-3 237 -9 423 -13 414z"/>
<path d="M2008 2360 c-12 -38 -9 -830 3 -801 5 14 8 188 7 425 -2 220 -6 390
-10 376z"/>
<path d="M3470 1902 c0 -386 3 -477 15 -519 32 -109 98 -163 195 -162 l55 1
-42 9 c-64 12 -110 37 -144 78 -57 69 -59 89 -59 598 0 302 -3 463 -10 463 -7
0 -10 -163 -10 -468z"/>
<path d="M6667 2363 c-11 -11 -8 -411 3 -418 7 -4 10 68 10 209 0 119 -1 216
-3 216 -2 0 -7 -3 -10 -7z"/>
<path d="M2806 1969 c-22 -5 -41 -10 -42 -12 -1 -1 32 -2 74 -3 90 0 147 -22
212 -80 66 -60 93 -122 98 -229 5 -100 20 -92 21 12 2 123 -67 237 -173 287
-60 29 -135 38 -190 25z"/>
<path d="M4237 1971 c-59 -12 -51 -16 31 -17 127 0 221 -58 280 -169 24 -45
27 -60 27 -157 0 -75 3 -100 9 -85 5 12 10 65 10 117 0 84 -3 101 -26 145 -65
123 -201 192 -331 166z"/>
<path d="M5202 1957 c-75 -31 -144 -95 -178 -164 -24 -49 -28 -70 -28 -138 -1
-70 3 -87 31 -141 17 -33 49 -76 69 -94 53 -46 139 -83 206 -88 51 -4 66 0
141 37 147 71 205 164 195 315 -6 87 -38 155 -100 213 -88 80 -227 105 -336
60z m200 -49 c22 -6 60 -30 85 -52 124 -109 124 -293 0 -402 -91 -80 -228 -88
-329 -18 -83 58 -129 173 -108 271 20 91 96 179 176 203 43 12 131 12 176 -2z"/>
<path d="M5236 1681 c-47 -47 -67 -74 -63 -85 10 -26 25 -19 86 39 l57 54 54
-54 c56 -57 76 -66 87 -39 4 11 -16 38 -63 85 -38 38 -73 69 -79 69 -6 0 -41
-31 -79 -69z"/>
<path d="M6316 1969 c-22 -5 -41 -10 -42 -12 -1 -1 32 -2 74 -2 101 -1 165
-29 230 -99 59 -65 84 -132 84 -228 1 -86 15 -57 17 33 3 162 -114 295 -274
312 -27 3 -68 1 -89 -4z"/>
<path d="M3855 1728 c-40 -235 66 -428 273 -497 64 -22 197 -28 237 -11 13 6
-9 9 -66 9 -99 1 -175 21 -241 62 -135 87 -209 241 -195 412 7 76 2 88 -8 25z"/>
<path d="M5934 1714 c-3 -31 -4 -88 -2 -128 14 -217 195 -378 422 -375 118 1
123 16 6 21 -87 3 -115 8 -163 31 -75 34 -127 76 -172 137 -57 77 -77 148 -78
268 0 56 -1 102 -3 102 -1 0 -6 -25 -10 -56z"/>
<path d="M4896 1729 c-11 -57 -6 -175 10 -230 33 -113 129 -220 232 -260 65
-24 172 -35 229 -23 33 7 24 9 -62 14 -123 7 -190 35 -270 111 -92 87 -146
237 -131 365 7 59 2 73 -8 23z"/>
<path d="M2423 1713 c-4 -21 -8 -214 -8 -429 0 -422 0 -424 52 -424 l25 0 -31
29 -32 30 3 415 c2 229 2 416 1 416 -1 0 -6 -17 -10 -37z"/>
<path d="M2550 1360 c0 -23 67 -82 126 -111 71 -35 178 -49 251 -33 32 7 23 9
-62 14 -117 6 -186 33 -258 99 -45 42 -57 48 -57 31z"/>
<path d="M5620 1317 c0 -64 20 -97 58 -97 25 1 26 1 7 12 -34 18 -45 40 -45
90 0 26 -4 48 -10 48 -5 0 -10 -24 -10 -53z"/>
</g>
</svg>
