<?xml version="1.0" standalone="no"?>
<!DOCTYPE svg PUBLIC "-//W3C//DTD SVG 20010904//EN"
 "http://www.w3.org/TR/2001/REC-SVG-20010904/DTD/svg10.dtd">
<svg version="1.0" xmlns="http://www.w3.org/2000/svg"
 width="1024.000000pt" height="1024.000000pt" viewBox="0 0 1024.000000 1024.000000"
 preserveAspectRatio="xMidYMid meet">

<g transform="translate(0.000000,1024.000000) scale(0.100000,-0.100000)"
fill="#000000" stroke="none">
<path d="M6824 7235 c-93 -42 -165 -135 -182 -236 -7 -41 -12 -46 -61 -71 -71
-36 -86 -51 -121 -121 -35 -69 -36 -86 -13 -156 19 -60 66 -119 117 -146 20
-11 36 -23 36 -27 0 -5 -25 -5 -55 -2 -54 7 -55 6 -55 -18 0 -20 6 -27 29 -31
27 -6 71 -46 119 -107 54 -71 376 -546 380 -562 3 -13 -35 -71 -118 -181 -257
-339 -320 -407 -391 -422 -20 -5 -29 -13 -29 -26 0 -18 10 -19 250 -19 237 0
250 1 250 19 0 14 -12 21 -56 30 -75 15 -120 44 -134 86 -14 44 -3 84 43 155
61 94 213 285 228 287 12 2 296 -400 323 -458 12 -26 -26 -67 -71 -75 -23 -4
-33 -12 -33 -24 0 -17 17 -18 250 -16 222 1 250 3 250 17 0 9 -17 24 -39 34
-51 22 -82 57 -172 187 -41 59 -97 140 -124 180 -172 248 -225 328 -225 336 0
5 43 70 96 143 231 321 275 370 367 414 57 28 55 49 -6 55 l-47 5 47 35 c32
23 58 54 76 90 25 48 28 63 23 113 -10 101 -70 180 -159 210 -31 10 -42 20
-52 50 -27 79 -84 132 -164 153 -45 11 -62 10 -154 -12 -24 -6 -33 -1 -63 35
-21 24 -61 53 -99 71 -82 39 -182 41 -261 5z m221 -70 c49 -20 91 -61 119
-120 15 -30 31 -55 35 -55 4 0 16 10 27 21 10 12 38 30 61 41 98 44 213 -34
213 -144 0 -36 2 -38 33 -38 43 0 115 -38 141 -73 30 -41 29 -131 -2 -175 -49
-68 -44 -67 -477 -68 -499 -1 -567 3 -608 30 -45 30 -79 100 -71 146 15 82 68
130 158 140 l50 5 -3 62 c-7 177 160 294 324 228z m252 -705 c4 -13 19 -20 56
-25 55 -8 107 -47 107 -82 0 -37 -71 -161 -168 -293 -54 -74 -102 -135 -107
-134 -9 1 -64 77 -224 311 -97 141 -100 159 -29 188 23 9 48 24 54 34 11 15
31 18 160 18 133 1 147 -1 151 -17z"/>
<path d="M7010 6924 c-70 -72 -73 -77 -55 -90 10 -8 29 -14 41 -14 21 0 23 -6
29 -95 l7 -96 67 3 66 3 5 89 5 88 34 12 c19 6 36 17 39 24 4 13 -135 151
-154 152 -6 0 -44 -34 -84 -76z"/>
<path d="M4505 7187 c-22 -5 -111 -10 -198 -11 -152 -1 -158 -2 -155 -21 2
-15 13 -21 43 -25 64 -9 107 -39 135 -95 l25 -50 0 -855 c0 -781 -1 -858 -17
-892 -21 -47 -66 -75 -135 -84 -41 -5 -53 -10 -53 -23 0 -16 26 -17 320 -17
293 0 320 1 320 17 0 12 -12 18 -46 23 -72 9 -111 33 -134 80 -20 42 -20 56
-20 1004 l0 962 -22 -1 c-13 -1 -41 -6 -63 -12z"/>
<path d="M900 6980 c0 -13 15 -20 66 -28 80 -13 110 -32 132 -80 15 -33 17
-111 20 -772 3 -728 -1 -843 -31 -890 -17 -28 -65 -48 -130 -56 -47 -6 -57
-10 -57 -26 0 -19 11 -19 463 -15 532 4 550 7 732 97 229 113 375 300 447 568
30 113 37 392 13 533 -63 383 -291 607 -682 674 -75 13 -172 15 -533 13 -404
-1 -440 -3 -440 -18z m935 -44 c319 -87 464 -328 482 -801 9 -242 -29 -502
-94 -647 -49 -110 -144 -213 -242 -263 -165 -83 -473 -110 -565 -50 -55 37
-56 47 -56 880 0 861 -1 848 68 885 34 19 51 20 192 16 100 -2 176 -9 215 -20z"/>
<path d="M3325 6509 c-82 -20 -200 -86 -259 -145 -139 -139 -206 -331 -207
-589 -1 -194 34 -332 116 -455 116 -174 289 -256 521 -248 106 4 115 6 197 45
101 49 186 130 237 224 53 101 16 127 -43 30 -144 -232 -449 -269 -626 -75
-60 66 -104 151 -132 259 -16 63 -21 110 -21 222 0 78 3 146 7 152 4 8 139 11
427 11 l420 0 -6 78 c-22 241 -114 391 -286 464 -67 28 -87 32 -190 34 -63 2
-133 -1 -155 -7z m216 -52 c100 -53 168 -223 169 -424 l0 -53 -294 0 c-184 0
-297 4 -301 10 -11 18 25 192 56 266 75 181 239 270 370 201z"/>
<path d="M8361 6504 c-253 -68 -416 -281 -452 -594 -14 -121 -7 -286 16 -375
8 -33 35 -101 60 -151 36 -74 58 -104 116 -159 123 -115 250 -160 434 -153 96
4 120 9 189 38 65 27 94 47 151 104 69 68 142 186 129 207 -13 22 -41 5 -69
-42 -78 -132 -203 -204 -355 -204 -75 0 -93 4 -155 33 -119 57 -200 164 -246
327 -19 66 -23 106 -24 225 0 80 3 153 7 163 7 16 37 17 424 17 l417 0 -7 89
c-20 265 -134 419 -353 476 -72 19 -211 18 -282 -1z m215 -40 c55 -26 111
-100 139 -184 26 -77 52 -256 42 -284 -6 -14 -43 -16 -303 -16 l-297 0 7 63
c20 202 106 355 230 413 60 28 133 31 182 8z"/>
<path d="M5265 6493 c-33 -10 -100 -15 -202 -16 -139 -1 -153 -3 -153 -19 0
-11 10 -20 25 -23 14 -3 37 -8 52 -11 43 -9 79 -40 99 -86 17 -39 19 -86 25
-523 5 -414 8 -487 22 -532 27 -80 73 -133 151 -173 67 -34 72 -35 185 -35
114 0 117 1 199 39 96 46 166 113 209 200 15 31 31 56 35 56 4 0 8 -66 8 -146
l0 -146 33 6 c98 21 155 26 272 25 120 -1 130 0 130 17 0 14 -11 20 -42 26
-55 9 -99 33 -120 64 -39 60 -43 127 -43 722 0 541 -1 573 -17 568 -72 -22
-138 -29 -268 -30 -124 -1 -150 -3 -150 -16 0 -13 17 -20 89 -35 47 -10 92
-63 105 -123 17 -82 15 -710 -3 -805 -28 -144 -116 -271 -225 -324 -46 -23
-69 -28 -131 -28 -89 0 -129 18 -165 73 -41 62 -45 131 -45 730 0 443 -3 562
-12 561 -7 -1 -35 -8 -63 -16z"/>
<path d="M2128 4957 c-12 -28 -10 -1036 2 -1098 27 -146 144 -290 292 -358
127 -60 260 -80 396 -61 137 19 133 27 -10 22 -104 -3 -154 -1 -214 13 -212
46 -373 186 -435 380 -9 30 -14 180 -18 580 -3 297 -9 532 -13 522z"/>
<path d="M5087 4950 c-4 -14 -7 -299 -5 -635 3 -607 3 -610 26 -666 47 -117
131 -179 242 -179 33 0 60 4 60 10 0 6 -19 10 -42 10 -99 0 -197 80 -240 196
-22 58 -22 71 -28 674 -3 338 -9 604 -13 590z"/>
<path d="M3198 4950 c-12 -24 -15 -1092 -3 -1072 6 10 11 177 13 427 3 472 0
666 -10 645z"/>
<path d="M9196 4929 c-8 -40 -8 -477 0 -506 18 -65 24 3 24 251 0 252 -8 335
-24 255z"/>
<path d="M7400 4453 c-60 -11 -173 -74 -229 -128 -250 -238 -121 -633 231
-707 153 -32 387 104 450 260 18 46 23 76 23 162 0 99 -2 110 -32 170 -17 36
-47 83 -66 105 -82 95 -258 159 -377 138z m185 -99 c72 -25 164 -119 194 -199
30 -79 26 -195 -9 -270 -34 -72 -116 -148 -187 -175 -78 -29 -205 -25 -276 9
-64 31 -129 99 -164 169 -25 50 -28 68 -28 147 1 78 5 97 28 142 88 170 260
239 442 177z"/>
<path d="M7351 4065 c-83 -85 -98 -117 -56 -123 13 -2 41 19 85 63 35 36 69
65 75 65 6 0 40 -29 75 -65 65 -66 102 -81 114 -49 9 22 -159 194 -189 194
-14 0 -51 -31 -104 -85z"/>
<path d="M4232 4439 c-94 -16 -84 -24 31 -24 100 0 118 -3 169 -27 104 -49
190 -148 222 -257 9 -31 16 -91 16 -139 0 -47 2 -83 5 -80 15 15 24 127 14
188 -36 228 -235 376 -457 339z"/>
<path d="M6072 4439 c-94 -16 -84 -24 31 -24 105 0 116 -2 179 -32 165 -78
255 -256 227 -449 -5 -37 -7 -69 -5 -71 2 -3 12 30 21 73 67 298 -162 552
-453 503z"/>
<path d="M8760 4440 c-96 -17 -98 -28 -4 -22 153 8 272 -43 356 -154 59 -79
81 -150 82 -266 1 -70 4 -92 11 -80 5 9 10 64 10 122 0 97 -2 110 -32 172 -59
126 -163 206 -293 227 -72 12 -67 12 -130 1z"/>
<path d="M5591 4183 c-94 -329 80 -650 387 -714 63 -13 266 -9 281 6 7 7 -24
9 -90 7 -180 -6 -314 45 -432 164 -61 62 -118 166 -136 252 -14 66 -14 212 0
271 12 55 4 66 -10 14z"/>
<path d="M6920 4134 c-15 -70 -15 -204 0 -269 19 -87 77 -192 138 -253 103
-103 227 -153 376 -151 126 1 169 17 50 18 -160 2 -289 51 -389 148 -121 117
-172 259 -163 458 3 58 4 105 2 105 -1 0 -8 -25 -14 -56z"/>
<path d="M8261 4140 c-16 -73 -14 -216 4 -283 47 -179 172 -313 351 -373 71
-23 90 -26 196 -22 64 1 122 8 127 13 7 7 -23 9 -88 7 -173 -6 -307 44 -422
159 -119 118 -168 259 -156 451 3 54 4 98 2 98 -2 0 -8 -23 -14 -50z"/>
<path d="M3731 4097 c-7 -41 -11 -242 -11 -556 l0 -492 25 -24 c25 -26 50 -31
75 -15 13 8 13 10 -2 10 -9 0 -28 10 -42 23 l-26 22 -1 548 c-1 301 -3 547 -4
547 -2 0 -8 -28 -14 -63z"/>
<path d="M3900 3648 c0 -47 119 -135 229 -168 45 -14 90 -20 155 -19 126 1
169 17 51 18 -158 2 -270 43 -375 139 -55 49 -60 52 -60 30z"/>
<path d="M7854 3655 c-13 -32 1 -143 20 -164 19 -21 76 -29 76 -11 0 6 -6 10
-13 10 -7 0 -23 9 -35 20 -19 18 -22 32 -22 90 0 66 -12 91 -26 55z"/>
</g>
</svg>
