<?xml version="1.0" standalone="no"?>
<!DOCTYPE svg PUBLIC "-//W3C//DTD SVG 20010904//EN"
 "http://www.w3.org/TR/2001/REC-SVG-20010904/DTD/svg10.dtd">
<svg version="1.0" xmlns="http://www.w3.org/2000/svg"
 width="700.000000pt" height="500.000000pt" viewBox="0 0 700.000000 500.000000"
 preserveAspectRatio="xMidYMid meet">
<metadata>
Created by potrace 1.16, written by Peter Selinger 2001-2019
</metadata>
<g transform="translate(0.000000,500.000000) scale(0.100000,-0.100000)"
fill="#000000" stroke="none">
<path d="M4880 4183 c-105 -19 -196 -110 -219 -218 -5 -20 -17 -35 -36 -44
-43 -20 -64 -40 -97 -90 -48 -76 -36 -159 35 -238 l20 -23 -21 0 c-18 0 -22
-6 -22 -30 0 -26 6 -32 39 -46 42 -17 75 -60 248 -319 26 -38 50 -72 53 -75
19 -15 78 -120 70 -125 -5 -3 -42 -49 -83 -103 -148 -197 -171 -225 -214 -268
-25 -24 -60 -49 -79 -56 -29 -10 -34 -16 -34 -45 l0 -33 213 2 212 3 0 30 c0
28 -4 31 -50 42 -84 21 -95 30 -95 80 0 37 8 55 50 111 51 70 81 108 116 150
l21 26 39 -54 c22 -29 48 -68 59 -86 44 -70 115 -173 125 -179 22 -14 8 -35
-30 -45 -37 -10 -40 -13 -40 -45 l0 -35 210 0 210 0 0 35 c0 30 -5 37 -34 49
-39 16 -91 79 -206 250 -96 142 -96 143 -145 209 -41 55 -43 75 -12 114 13 15
45 60 72 98 27 39 52 72 55 75 3 3 13 17 22 31 36 57 130 148 168 163 34 14
40 20 40 46 0 21 -5 30 -16 30 -12 0 -7 11 17 41 59 74 52 194 -16 263 -18 19
-48 40 -68 47 -25 9 -37 20 -41 38 -7 36 -80 107 -123 122 -21 7 -61 9 -97 6
-57 -5 -62 -4 -95 25 -61 54 -155 84 -221 71z m92 -113 c51 -19 62 -29 103
-93 15 -24 16 -27 1 -21 -9 3 -16 10 -16 15 0 5 -11 9 -23 9 -16 0 -44 -21
-85 -64 -34 -35 -62 -69 -62 -74 0 -17 30 -42 51 -42 17 0 19 -7 19 -64 0 -41
5 -68 13 -73 20 -12 121 -12 129 0 4 7 8 42 8 79 0 65 1 67 28 70 40 5 41 40
2 79 -17 17 -30 32 -28 34 46 36 96 65 115 65 44 0 81 -36 98 -95 15 -52 17
-53 60 -59 89 -14 124 -103 66 -168 l-29 -33 -370 1 c-349 0 -371 1 -403 20
-28 16 -35 27 -37 59 -2 21 -1 49 3 62 8 32 61 63 108 63 l37 0 0 55 c0 89 26
134 102 175 44 23 49 23 110 0z m204 -555 c4 -8 16 -15 29 -15 12 0 36 -5 54
-11 54 -19 42 -58 -71 -221 -21 -29 -49 -66 -63 -83 -24 -28 -26 -29 -38 -12
-7 10 -44 64 -84 120 -40 56 -82 120 -94 141 -20 38 -20 40 -3 53 10 7 26 13
36 13 10 0 21 7 24 15 5 12 26 15 105 15 79 0 101 -3 105 -15z"/>
<path d="M3045 4128 c-16 -6 -93 -12 -170 -13 l-140 -3 0 -33 c0 -32 2 -34 45
-41 26 -5 54 -18 70 -33 l25 -25 3 -690 2 -691 -24 -24 c-15 -15 -37 -25 -53
-25 -58 0 -73 -10 -73 -46 l0 -34 265 0 265 0 0 34 c0 35 -15 46 -67 46 -12 0
-35 11 -50 24 l-28 24 -5 768 c-5 844 0 784 -65 762z"/>
<path d="M207 3973 c-12 -11 -8 -51 5 -59 7 -5 37 -11 67 -15 63 -9 70 -14 82
-65 12 -56 12 -1180 -1 -1226 -13 -45 -18 -49 -94 -62 -59 -11 -61 -12 -61
-41 l0 -30 380 0 c407 0 377 -3 530 53 130 46 278 180 338 304 79 163 90 216
90 413 -1 144 -13 244 -40 305 -49 115 -71 155 -112 205 -55 65 -173 149 -233
165 -24 7 -47 15 -53 20 -5 4 -53 15 -106 24 -76 13 -170 16 -441 16 -190 0
-348 -3 -351 -7z m678 -73 c96 -15 192 -58 252 -114 62 -56 96 -116 132 -231
24 -76 25 -92 26 -325 0 -228 -2 -251 -23 -325 -13 -44 -28 -87 -33 -95 -4 -8
-17 -33 -27 -55 -45 -94 -181 -183 -312 -204 -36 -6 -100 -11 -143 -11 -98 0
-132 16 -146 68 -15 51 -15 1183 0 1235 8 29 18 42 42 52 37 17 147 19 232 5z"/>
<path d="M2140 3604 c-121 -24 -232 -87 -288 -164 -94 -127 -139 -295 -130
-483 6 -103 42 -241 74 -278 8 -8 14 -19 14 -23 0 -30 133 -152 192 -175 46
-19 64 -24 88 -28 14 -2 34 -12 44 -21 12 -11 16 -12 11 -3 -7 11 -1 13 28 8
56 -9 161 10 230 41 79 36 156 111 197 192 34 67 32 80 -17 94 -19 6 -25 0
-43 -35 -51 -98 -165 -169 -273 -169 -56 0 -135 31 -174 69 -30 29 -81 104
-98 146 -20 46 -38 218 -30 282 l6 53 322 2 322 3 -1 60 c-4 214 -88 351 -248
407 -52 18 -182 30 -226 22z m143 -96 c48 -34 91 -140 103 -255 l7 -63 -213 0
-212 0 7 67 c11 100 67 204 133 245 64 39 124 41 175 6z"/>
<path d="M6050 3604 c-65 -13 -150 -49 -196 -84 -124 -94 -182 -208 -209 -412
-12 -93 -13 -122 -1 -206 34 -238 143 -382 335 -442 213 -66 412 6 526 192 42
67 44 91 10 106 -34 16 -31 17 -60 -28 -69 -109 -142 -158 -251 -167 -52 -5
-70 -1 -123 22 -70 32 -124 86 -153 154 -11 25 -23 55 -28 66 -18 41 -30 128
-30 215 l0 90 324 0 c275 0 325 2 336 15 17 21 4 130 -25 218 -42 123 -112
198 -220 236 -59 21 -186 34 -235 25z m148 -101 c18 -13 41 -41 51 -62 27 -51
51 -150 51 -205 l0 -46 -211 0 -211 0 7 53 c4 28 14 64 21 79 8 15 14 34 14
43 0 20 41 84 71 111 79 68 140 76 207 27z"/>
<path d="M3610 3584 c-25 -7 -100 -13 -167 -13 l-123 -1 0 -35 c0 -30 3 -35
24 -35 49 0 86 -22 106 -61 19 -36 20 -60 20 -366 0 -385 7 -447 54 -518 107
-161 395 -155 531 11 l45 56 0 -86 c0 -96 6 -105 56 -84 16 7 94 15 174 18
l145 5 0 29 c0 26 -4 30 -50 41 -55 14 -80 39 -95 93 -6 23 -10 216 -10 500 0
285 -4 462 -10 462 -5 0 -35 -7 -67 -15 -35 -9 -103 -15 -175 -15 l-118 0 0
-35 c0 -30 3 -35 24 -35 40 0 84 -20 103 -48 16 -25 18 -54 18 -352 l0 -325
-27 -57 c-55 -115 -136 -177 -233 -178 -64 0 -96 16 -117 60 -16 32 -18 78
-18 506 0 473 -2 497 -34 493 -6 -1 -31 -7 -56 -15z"/>
<path d="M1182 2434 c-51 -36 -52 -44 -52 -468 0 -471 5 -505 94 -622 95 -124
237 -187 421 -187 208 0 375 90 454 245 17 35 26 54 19 44 -82 -121 -187 -194
-317 -222 -247 -52 -480 43 -574 235 l-32 66 -3 438 c-3 387 -1 442 13 463 18
28 9 31 -23 8z"/>
<path d="M2025 2440 c-50 -20 -50 -15 -55 -474 -4 -299 -9 -439 -17 -458 -19
-43 -83 -107 -132 -134 -56 -30 -13 -20 49 11 57 29 103 77 129 135 20 43 21
64 21 465 0 364 2 424 16 443 8 12 14 22 12 21 -2 0 -12 -4 -23 -9z"/>
<path d="M3468 2421 l-33 -29 0 -499 0 -498 29 -63 c16 -34 44 -75 61 -91 77
-68 205 -81 252 -27 31 36 29 48 -4 30 -58 -30 -150 -8 -208 50 -74 75 -75 81
-75 633 0 315 4 491 10 504 15 27 6 24 -32 -10z"/>
<path d="M6659 2421 l-29 -29 0 -201 c0 -198 0 -200 25 -228 l24 -28 1 242 c0
206 2 244 16 257 9 10 11 16 4 16 -6 0 -25 -13 -41 -29z"/>
<path d="M2648 2056 c-107 -52 -196 -146 -240 -254 -23 -56 -23 -64 -26 -490
l-3 -433 30 -29 c45 -45 111 -36 141 20 9 18 8 18 -21 8 -39 -13 -76 2 -89 38
-13 34 -13 730 0 814 22 135 119 273 232 325 29 14 46 24 38 24 -8 0 -36 -11
-62 -23z"/>
<path d="M4063 2049 c-95 -46 -156 -107 -204 -203 -36 -74 -41 -92 -46 -177
-13 -225 98 -402 295 -470 221 -76 464 16 570 218 43 83 40 92 -6 18 -50 -78
-109 -130 -191 -168 -56 -27 -80 -32 -162 -35 -153 -7 -256 33 -349 134 -113
123 -140 330 -63 493 33 70 123 166 180 191 24 10 43 21 43 24 0 8 4 9 -67
-25z"/>
<path d="M5086 2038 c-84 -46 -150 -116 -192 -207 -86 -179 -46 -400 97 -536
66 -63 138 -100 225 -116 109 -20 235 6 324 67 l50 34 0 -25 c0 -15 11 -36 28
-51 22 -22 34 -25 67 -21 26 4 48 15 62 32 29 33 30 51 1 31 -56 -40 -108 -4
-108 74 0 28 -2 50 -5 50 -3 0 -19 -15 -35 -33 -16 -19 -60 -49 -97 -68 -66
-33 -72 -34 -183 -34 -104 0 -121 3 -173 27 -214 101 -303 368 -197 596 33 70
114 158 176 190 21 12 35 21 29 21 -5 0 -36 -14 -69 -31z"/>
<path d="M6122 2040 c-65 -30 -149 -121 -191 -209 -35 -74 -36 -79 -36 -196 0
-117 1 -122 36 -196 155 -324 600 -361 798 -67 23 34 41 66 41 72 0 11 0 12
-54 -57 -48 -60 -123 -111 -204 -138 -52 -17 -81 -21 -160 -17 -83 3 -107 8
-164 35 -219 103 -305 369 -193 599 32 66 103 146 160 181 30 18 15 15 -33 -7z"/>
<path d="M2785 1967 c-89 -23 -164 -88 -194 -170 -15 -40 -13 -58 3 -22 19 45
74 94 135 123 46 21 63 24 126 20 119 -8 202 -70 245 -185 47 -123 0 -271
-109 -345 -18 -12 -21 -18 -10 -18 26 0 109 61 134 99 83 125 71 301 -27 407
-76 82 -196 118 -303 91z"/>
<path d="M4215 1967 c-27 -7 -69 -25 -92 -40 -43 -27 -107 -109 -101 -129 2
-6 14 2 26 19 12 18 46 46 75 65 49 31 57 33 142 33 73 0 98 -4 130 -22 96
-52 149 -144 149 -263 1 -97 -34 -173 -101 -225 -57 -44 -33 -46 32 -3 88 58
132 161 123 287 -14 193 -197 325 -383 278z"/>
<path d="M5202 1958 c-72 -28 -143 -95 -178 -165 -24 -49 -28 -71 -28 -138 -1
-70 3 -87 31 -141 38 -73 86 -117 170 -157 56 -25 72 -29 131 -25 125 7 226
72 284 180 20 37 23 58 23 143 0 89 -3 106 -27 150 -77 146 -254 213 -406 153z
m171 -65 c66 -18 120 -59 160 -122 31 -51 30 -182 -1 -233 -28 -46 -79 -91
-118 -105 -96 -34 -100 -35 -166 -13 -68 22 -126 68 -156 124 -23 44 -23 180
1 223 31 57 86 102 151 122 34 11 62 20 64 20 1 1 30 -6 65 -16z"/>
<path d="M5215 1693 c-41 -42 -75 -81 -75 -88 0 -17 33 -45 54 -45 9 0 40 23
68 50 l52 51 51 -51 c50 -50 80 -61 103 -38 25 25 11 54 -60 125 -48 48 -80
73 -95 73 -15 0 -48 -26 -98 -77z"/>
<path d="M6295 1965 c-27 -8 -53 -14 -56 -15 -17 -1 -112 -97 -129 -131 -24
-47 -26 -73 -3 -39 62 94 142 140 243 140 110 -1 195 -53 248 -155 36 -70 38
-187 3 -258 -30 -62 -95 -124 -145 -139 -21 -7 -34 -14 -29 -15 6 -2 35 6 66
17 117 44 187 152 187 288 0 89 -24 154 -82 218 -78 85 -197 120 -303 89z"/>
<path d="M3250 1441 c0 -19 -98 -117 -149 -150 -77 -48 -141 -64 -245 -59
-108 5 -179 32 -250 99 -26 23 -49 39 -52 36 -3 -3 -3 -24 1 -46 5 -32 15 -47
48 -71 124 -91 314 -102 462 -27 74 37 214 202 191 225 -3 3 -6 0 -6 -7z"/>
</g>
</svg>
